<svg width="30" height="30" viewBox="0 0 30 30" fill="none" xmlns="http://www.w3.org/2000/svg">
<circle cx="15" cy="15" r="15" fill="#F9F9FF"/>
<path d="M6 14C5.44772 14 5 14.4477 5 15C5 15.5523 5.44772 16 6 16V14ZM24.7071 15.7071C25.0976 15.3166 25.0976 14.6834 24.7071 14.2929L18.3431 7.92893C17.9526 7.53841 17.3195 7.53841 16.9289 7.92893C16.5384 8.31946 16.5384 8.95262 16.9289 9.34315L22.5858 15L16.9289 20.6569C16.5384 21.0474 16.5384 21.6805 16.9289 22.0711C17.3195 22.4616 17.9526 22.4616 18.3431 22.0711L24.7071 15.7071ZM6 16H24V14H6V16Z" fill="#73A2BF"/>
</svg>
