<svg width="36" height="46" viewBox="0 0 36 46" fill="none" xmlns="http://www.w3.org/2000/svg">
<path d="M30.8402 0H5.16188C2.31046 0 0 2.34525 0 5.23727V40.7627C0 43.6547 2.31046 46 5.16188 46H30.8381C33.6895 46 36 43.6547 36 40.7627V5.23727C36.0021 2.34525 33.6885 0 30.8402 0ZM4.83772 17.6548C4.83772 16.4272 5.81951 15.4332 7.02739 15.4332H7.79341C6.9768 14.5177 6.47506 13.3069 6.47506 11.9724C6.47506 9.12018 8.75558 6.8074 11.5667 6.8074C14.38 6.8074 16.6584 9.11914 16.6584 11.9734C16.6584 13.3058 16.1567 14.5177 15.338 15.4332H16.07C17.2799 15.4332 18.2596 16.4272 18.2596 17.6548V21.4026C18.2596 22.5779 17.3563 23.529 16.2207 23.6086H6.87666C5.74104 23.529 4.83772 22.5779 4.83772 21.4026V17.6548ZM29.0986 39.1915H6.90247C5.76273 39.1915 4.83772 38.253 4.83772 37.0966C4.83772 35.9403 5.76273 35.0017 6.90247 35.0017H29.0986C30.2383 35.0017 31.1633 35.9403 31.1633 37.0966C31.1633 38.253 30.2383 39.1915 29.0986 39.1915ZM29.0986 31.3356H6.90247C5.76273 31.3356 4.83772 30.3971 4.83772 29.2407C4.83772 28.0843 5.76273 27.1458 6.90247 27.1458H29.0986C30.2383 27.1458 31.1633 28.0843 31.1633 29.2407C31.1633 30.3971 30.2383 31.3356 29.0986 31.3356ZM29.0986 23.4797H22.3881C21.2484 23.4797 20.3234 22.5412 20.3234 21.3848C20.3234 20.2284 21.2484 19.2899 22.3881 19.2899H29.0986C30.2383 19.2899 31.1633 20.2284 31.1633 21.3848C31.1633 22.5412 30.2383 23.4797 29.0986 23.4797Z" fill="#213140"/>
<path d="M23.075 8.875V10.025H24.9V10.4H23.075V11.625H25.4V12H22.35V8.5H25.4V8.875H23.075ZM29.4998 8.5V12H28.5498L26.6748 9.15H26.6248V12H25.8998V8.5H26.8498L28.7248 11.35H28.7748V8.5H29.4998Z" fill="#F9F9FF"/>
</svg>
