<svg width="36" height="46" viewBox="0 0 36 46" fill="none" xmlns="http://www.w3.org/2000/svg">
<path d="M30.8402 0H5.16188C2.31046 0 0 2.34525 0 5.23727V40.7627C0 43.6547 2.31046 46 5.16188 46H30.8381C33.6895 46 36 43.6547 36 40.7627V5.23727C36.0021 2.34525 33.6885 0 30.8402 0ZM4.83772 17.6548C4.83772 16.4272 5.81951 15.4332 7.02739 15.4332H7.79341C6.9768 14.5177 6.47506 13.3069 6.47506 11.9724C6.47506 9.12018 8.75558 6.8074 11.5667 6.8074C14.38 6.8074 16.6584 9.11914 16.6584 11.9734C16.6584 13.3058 16.1567 14.5177 15.338 15.4332H16.07C17.2799 15.4332 18.2596 16.4272 18.2596 17.6548V21.4026C18.2596 22.5779 17.3563 23.529 16.2207 23.6086H6.87666C5.74104 23.529 4.83772 22.5779 4.83772 21.4026V17.6548ZM29.0986 39.1915H6.90247C5.76273 39.1915 4.83772 38.253 4.83772 37.0966C4.83772 35.9403 5.76273 35.0017 6.90247 35.0017H29.0986C30.2383 35.0017 31.1633 35.9403 31.1633 37.0966C31.1633 38.253 30.2383 39.1915 29.0986 39.1915ZM29.0986 31.3356H6.90247C5.76273 31.3356 4.83772 30.3971 4.83772 29.2407C4.83772 28.0843 5.76273 27.1458 6.90247 27.1458H29.0986C30.2383 27.1458 31.1633 28.0843 31.1633 29.2407C31.1633 30.3971 30.2383 31.3356 29.0986 31.3356ZM29.0986 23.4797H22.3881C21.2484 23.4797 20.3234 22.5412 20.3234 21.3848C20.3234 20.2284 21.2484 19.2899 22.3881 19.2899H29.0986C30.2383 19.2899 31.1633 20.2284 31.1633 21.3848C31.1633 22.5412 30.2383 23.4797 29.0986 23.4797Z" fill="#213140"/>
<path d="M24.15 9.5C24.4 9.5 24.6233 9.52833 24.82 9.585C25.02 9.63833 25.1883 9.71833 25.325 9.825C25.4617 9.92833 25.5667 10.0567 25.64 10.21C25.7133 10.36 25.75 10.5317 25.75 10.725C25.75 10.9917 25.6833 11.2167 25.55 11.4C25.4167 11.5833 25.225 11.7233 24.975 11.82L25.8 13H24.975L24.24 11.95H24.15H23.075V13H22.35V9.5H24.15ZM23.075 9.875V11.575H24.15C24.4133 11.575 24.6167 11.5067 24.76 11.37C24.9033 11.23 24.975 11.015 24.975 10.725C24.975 10.435 24.9033 10.2217 24.76 10.085C24.6167 9.945 24.4133 9.875 24.15 9.875H23.075ZM28.149 12.75C28.3124 12.75 28.459 12.7283 28.589 12.685C28.7224 12.6383 28.8357 12.5683 28.929 12.475C29.0224 12.3783 29.094 12.2567 29.144 12.11C29.1974 11.96 29.224 11.7817 29.224 11.575V9.5H29.949V11.575C29.949 12.0883 29.7924 12.4717 29.479 12.725C29.1657 12.975 28.7224 13.1 28.149 13.1C27.5724 13.1 27.1274 12.975 26.814 12.725C26.504 12.4717 26.349 12.0883 26.349 11.575V9.5H27.074V11.575C27.074 11.7817 27.099 11.96 27.149 12.11C27.2024 12.2567 27.2757 12.3783 27.369 12.475C27.4624 12.5683 27.574 12.6383 27.704 12.685C27.8374 12.7283 27.9857 12.75 28.149 12.75Z" fill="#F9F9FF"/>
</svg>
